<svg xmlns="http://www.w3.org/2000/svg" width="880" height="300" viewBox="0 0 880 300" font-family="Inter, system-ui, sans-serif">
  <rect width="880" height="300" rx="24" fill="#EAF1EC"/>
  <text x="40" y="62" font-size="30" font-weight="800" fill="#16201b" letter-spacing="-0.5">Serenity Cards</text>
  <text x="40" y="88" font-size="14" font-weight="500" fill="#8a949c">19 cartes Lovelace coherentes pour Home Assistant</text>

  <!-- light card mock -->
  <g>
    <rect x="40" y="116" width="250" height="64" rx="16" fill="#ffffff"/>
    <rect x="40" y="116" width="162" height="64" rx="16" fill="#E2A93C" opacity="0.12"/>
    <rect x="52" y="128" width="40" height="40" rx="13" fill="#E2A93C" opacity="0.18"/>
    <circle cx="72" cy="148" r="9" fill="none" stroke="#E2A93C" stroke-width="2.4"/>
    <line x1="72" y1="157" x2="72" y2="161" stroke="#E2A93C" stroke-width="2.4" stroke-linecap="round"/>
    <text x="104" y="146" font-size="14" font-weight="700" fill="#16201b">Spots cuisine</text>
    <text x="104" y="164" font-size="12" font-weight="600" fill="#E2A93C">65 %</text>
  </g>

  <!-- person card mock -->
  <g>
    <rect x="314" y="116" width="250" height="64" rx="16" fill="#ffffff"/>
    <circle cx="349" cy="148" r="21" fill="#E3F2E9"/>
    <text x="349" y="153" font-size="13" font-weight="700" fill="#3F9E6B" text-anchor="middle">LL</text>
    <circle cx="364" cy="162" r="6" fill="#35C76C" stroke="#ffffff" stroke-width="2.5"/>
    <text x="382" y="144" font-size="14" font-weight="700" fill="#16201b">Loic</text>
    <text x="530" y="144" font-size="11" font-weight="500" fill="#9aa3af" text-anchor="end">depuis 2 h</text>
    <text x="382" y="164" font-size="12" font-weight="500" fill="#9aa3af">Maison</text>
  </g>

  <!-- tile card mock -->
  <g>
    <rect x="588" y="116" width="250" height="140" rx="16" fill="#ffffff"/>
    <rect x="588" y="116" width="250" height="140" rx="16" fill="#3F9E6B" opacity="0.08"/>
    <rect x="604" y="132" width="42" height="42" rx="13" fill="#3F9E6B" opacity="0.16"/>
    <path d="M 617 158 l 8 -9 8 9 v 8 h -16 z" fill="none" stroke="#3F9E6B" stroke-width="2.2" stroke-linejoin="round"/>
    <text x="604" y="208" font-size="15" font-weight="700" fill="#16201b">Securite</text>
    <text x="604" y="230" font-size="12.5" font-weight="500" fill="#9aa3af">Arme - Maison</text>
  </g>

  <!-- graph card mock -->
  <g>
    <rect x="40" y="196" width="524" height="84" rx="16" fill="#ffffff"/>
    <rect x="52" y="208" width="36" height="36" rx="12" fill="#E0813F" opacity="0.16"/>
    <circle cx="70" cy="226" r="8" fill="none" stroke="#E0813F" stroke-width="2.2"/>
    <text x="100" y="222" font-size="13.5" font-weight="700" fill="#16201b">Temperature salon</text>
    <text x="100" y="238" font-size="11" font-weight="500" fill="#9aa3af">Dernieres 24 h</text>
    <text x="548" y="228" font-size="19" font-weight="800" fill="#16201b" text-anchor="end">21.4&#176;</text>
    <path d="M 52 268 C 100 262, 130 250, 180 252 C 240 254, 260 240, 320 236 C 380 232, 420 244, 470 240 C 500 238, 530 230, 552 228"
          fill="none" stroke="#E0813F" stroke-width="2.6" stroke-linecap="round"/>
  </g>
</svg>
